<?xml version="1.0" standalone="no"?>
<!DOCTYPE svg PUBLIC "-//W3C//DTD SVG 20010904//EN"
 "http://www.w3.org/TR/2001/REC-SVG-20010904/DTD/svg10.dtd">
<svg version="1.0" xmlns="http://www.w3.org/2000/svg"
 width="640.000000pt" height="640.000000pt" viewBox="0 0 640.000000 640.000000"
 preserveAspectRatio="xMidYMid meet">
<metadata>
Created by potrace 1.16, written by Peter Selinger 2001-2019
</metadata>
<g transform="translate(0.000000,640.000000) scale(0.100000,-0.100000)"
fill="#6c757d" stroke="none">
<path d="M2990 5803 c-72 -5 -247 -33 -345 -54 -683 -149 -1275 -556 -1658
-1139 -80 -123 -210 -382 -262 -524 -47 -129 -109 -370 -132 -516 -25 -159
-25 -563 0 -735 145 -997 843 -1814 1813 -2124 582 -187 1216 -160 1803 75
314 126 569 294 825 544 368 358 600 751 717 1213 88 346 102 752 38 1127 -87
517 -399 1086 -784 1431 -347 311 -719 515 -1140 624 -255 66 -612 98 -875 78z
m530 -338 c377 -57 729 -206 1040 -441 431 -326 731 -804 847 -1352 26 -122
27 -138 27 -437 0 -285 -2 -318 -22 -415 -70 -323 -181 -592 -349 -842 -87
-131 -141 -195 -314 -373 l-127 -130 4 -60 c4 -60 4 -60 -29 50 -41 136 -55
168 -101 235 -42 61 -43 56 48 129 34 27 86 81 116 120 36 46 69 78 95 90 71
34 125 104 125 163 0 13 -13 45 -29 72 l-28 50 19 85 c21 91 21 135 -2 364
-12 126 -41 198 -139 345 -85 126 -156 189 -287 255 -176 88 -195 92 -379 91
-130 0 -177 -4 -248 -22 -227 -56 -383 -176 -553 -427 -51 -75 -54 -85 -63
-165 -5 -47 -21 -125 -35 -174 -36 -123 -34 -149 19 -250 25 -47 45 -92 45
-100 0 -7 -13 -30 -30 -51 -25 -31 -30 -47 -30 -89 0 -34 7 -61 20 -80 35 -54
140 -100 140 -62 0 7 -7 32 -15 55 -21 61 0 40 39 -38 67 -133 165 -227 315
-301 102 -52 202 -78 345 -90 66 -6 122 -13 125 -17 11 -11 -223 6 -299 22
-41 8 -110 27 -153 41 -91 30 -82 35 -141 -76 -67 -127 -97 -245 -121 -468 -7
-65 -21 -88 -30 -50 -32 139 -138 551 -190 736 -95 342 -114 401 -133 411 -9
5 -62 21 -117 36 -55 14 -128 35 -163 47 -35 11 -66 18 -69 15 -3 -3 22 -43
55 -89 94 -131 246 -451 259 -546 l6 -43 -82 -76 c-44 -42 -81 -82 -81 -90 0
-7 43 -55 95 -107 78 -76 95 -98 95 -122 l-1 -29 -15 30 c-9 17 -62 76 -117
132 l-101 103 89 84 c80 75 89 87 88 118 -2 72 -162 406 -271 565 -86 127 -86
127 -78 156 5 21 21 34 69 56 42 19 80 47 117 87 48 51 66 62 128 82 39 13 74
27 77 33 4 5 -7 26 -23 47 -67 85 -65 107 11 117 29 3 64 8 79 11 l27 5 -15
45 c-8 24 -21 65 -29 90 l-14 45 47 20 c94 40 202 93 202 101 0 4 -35 28 -78
52 -77 45 -162 110 -162 126 0 4 41 22 92 40 100 34 217 91 287 139 44 30 45
30 20 40 -113 45 -284 122 -287 129 -1 5 61 71 139 146 79 74 140 138 137 142
-4 3 -76 17 -160 30 -173 27 -208 34 -208 40 0 9 33 71 123 227 49 86 88 160
85 162 -3 3 -73 -20 -157 -50 -83 -30 -166 -56 -184 -58 -28 -2 -33 2 -44 35
-14 44 -33 240 -33 356 l0 84 -67 -37 c-93 -51 -203 -134 -278 -212 l-63 -65
-95 119 c-106 132 -194 229 -201 222 -3 -2 -12 -49 -21 -104 -24 -151 -62
-290 -90 -323 -1 -1 -49 18 -106 43 -107 46 -243 84 -256 72 -4 -4 4 -31 16
-60 46 -105 74 -193 79 -254 l5 -62 -34 -5 c-19 -3 -124 -12 -234 -21 -110 -9
-202 -18 -204 -20 -2 -3 33 -43 78 -91 96 -102 181 -218 181 -249 0 -28 -42
-66 -187 -169 -68 -48 -123 -90 -123 -95 0 -4 34 -15 75 -25 41 -10 97 -29
125 -43 55 -27 160 -122 160 -144 0 -8 -48 -62 -106 -120 -59 -59 -104 -111
-101 -117 4 -5 65 -29 137 -53 100 -33 130 -47 130 -60 0 -10 -11 -64 -25
-121 -14 -57 -25 -107 -25 -112 0 -5 48 -7 110 -4 61 3 112 2 115 -2 3 -4 10
-43 16 -86 6 -44 12 -81 15 -83 4 -4 114 39 114 45 0 2 -22 42 -48 88 -27 47
-61 121 -75 164 -35 105 -77 317 -76 378 l1 49 9 -40 c4 -22 15 -82 24 -134
33 -196 123 -417 201 -495 25 -25 79 -61 127 -84 l84 -41 -6 -37 -6 -37 -221
-74 -221 -74 -16 -52 c-97 -336 -169 -579 -181 -612 l-15 -40 0 35 c-1 29 -14
50 -72 115 -296 335 -472 689 -561 1129 -21 101 -23 138 -23 406 1 285 2 300
29 425 57 268 169 552 299 762 353 568 977 968 1627 1042 52 6 111 13 130 15
72 9 389 -4 490 -19z m-1359 -3259 c-48 -106 -138 -346 -160 -425 l-21 -74 35
-33 c19 -18 62 -56 95 -85 33 -28 60 -58 60 -65 0 -16 -49 -73 -50 -57 0 6 5
15 10 18 25 15 4 50 -81 133 -83 81 -90 91 -83 118 20 89 199 534 215 534 4 0
-5 -29 -20 -64z"/>
</g>
</svg>
